# xmcd
#
# Track frame offsets: 
#        150
#        13157
#        25155
#        34936
#        49548
#        66372
#        73855
#        92891
#        109038
#        119238
#        136589
#        156493
#
# Disc length: 2239 seconds
#
# Revision: 1
# Processed by: cddbd v1.5.2PL0 Copyright (c) Steve Scherf et al.
# Submitted via: ExactAudioCopy v0.99pb5
#
DISCID=ac08bd0c
DTITLE=Global Stage Orchestra - The Curse Of The Black Pearl
DYEAR=2007
DGENRE=Soundtrack
TTITLE0=The Medallion Calls
TTITLE1=Fog Bound
TTITLE2=Will And Elizabeth
TTITLE3=The Black Pearl
TTITLE4=Swords Crossed
TTITLE5=Walk The Plank
TTITLE6=Barbossa is Hungry
TTITLE7=Blood Ritual
TTITLE8=Moonlight Serenade
TTITLE9=To The Pirates' Cave
TTITLE10=Underwater March
TTITLE11=He`s A Pirate
EXTD=
EXTT0=
EXTT1=
EXTT2=
EXTT3=
EXTT4=
EXTT5=
EXTT6=
EXTT7=
EXTT8=
EXTT9=
EXTT10=
EXTT11=
PLAYORDER=
